<?xml version="1.0" encoding="utf-8"?>
<!-- Generator: Adobe Illustrator 23.1.0, SVG Export Plug-In . SVG Version: 6.00 Build 0)  -->
<svg version="1.1" id="Слой_1" xmlns="http://www.w3.org/2000/svg" xmlns:xlink="http://www.w3.org/1999/xlink" x="0px" y="0px"
	 viewBox="0 0 343.5484009 402.8709717" style="enable-background:new 0 0 343.5484009 402.8709717;" xml:space="preserve">
<rect style="display:none;" width="343.5484009" height="402.8709717"/>
<g id="Якорь">
	<path style="fill:#FFFFFF;" d="M200.691925,112.1626205c0.8124237,0,1.5550842-0.0256653,2.2955322,0.0039291
		c8.4685516,0.3384399,16.9378815,0.6601563,25.4045258,1.0419006c3.5413818,0.1596756,7.0780487,0.4346542,10.614502,0.6896057
		c2.1445465,0.1546173,2.8909607,0.9495468,2.8990784,3.0887985c0.0183716,4.8390656,0.0172119,9.6783218-0.0066376,14.5173264
		c-0.0034943,0.7149811-0.1968842,1.4270782-0.2612305,2.1441956c-0.0795288,0.8868103-0.5163116,1.3137817-1.4222717,1.3914948
		c-2.2435608,0.1924896-4.477356,0.5385742-6.7236786,0.6511841c-5.7928314,0.2904968-11.5923157,0.4476624-17.3854828,0.7320862
		c-8.7643433,0.4302673-17.5245209,0.9453583-26.2884979,1.3838654c-10.120575,0.5063629-20.2423401,0.7098389-30.3713226,0.1437683
		c-8.0401611-0.4493408-16.0858154-0.8008881-24.129425-1.1876221c-0.6875305-0.0330658-1.3780365-0.0043793-2.1873779-0.0043793
		c0.0333557,1.3044434-0.4254761,2.5184326,0.9808197,3.5482178c2.1087799,1.5441742,3.2704468,3.8152618,3.8630066,6.3398132
		c0.42659,1.8173523,1.3395691,3.1811829,2.9341736,4.2326202c2.1738281,1.4333649,3.5853119,3.5297699,4.3603058,6.0190582
		c0.3881378,1.2467194,0.9871063,2.0735779,2.2967987,2.7042236c2.7120819,1.3059692,4.7400208,3.4291534,5.8786469,6.3207245
		c0.2117462,0.5377502,0.6948395,1.0718231,1.1939392,1.3746185c1.8163605,1.1019897,3.6922455,2.1058807,5.5475006,3.1434631
		c0.0993042,0.055542,0.2153168,0.081192,0.4493408,0.166748c0.4008636-10.4235229,0.7989349-20.7745819,1.1993561-31.1866608
		c1.0449829,0,2.0152893,0,3.1343079,0c-0.3525238,10.6863403-0.7026062,21.2994995-1.0527344,31.912674
		c0.082901,0.0093079,0.1657715,0.0186157,0.2486725,0.0279083c0.1751556-1.4675751,0.4433899-2.9309387,0.5101013-4.4034119
		c0.3864899-8.5286255,0.7191315-17.0596771,1.0944519-25.5888214c0.0257416-0.5852966,0.2506256-1.16185,0.3829041-1.7424469
		c0.1495056,0.0074921,0.2989655,0.0149841,0.4484558,0.0225067c0.0927124,0.803299,0.272522,1.6075287,0.2637634,2.409729
		c-0.0505219,4.6300049-0.1475525,9.259491-0.2251434,13.8892365c-0.1058044,6.3131561-0.1928711,12.626709-0.3316803,18.9391174
		c-0.0172729,0.7856903,0.1716003,1.229599,0.9456177,1.4435272c0.51091,0.1412048,0.9891968,0.4005127,1.6068115,0.6591644
		c0.1066284-12.3911133,0.212265-24.6694794,0.318924-37.0634766c2.5920563-0.1485901,5.125351-0.2938232,7.8182831-0.4481964
		c0.6190796,14.8296509,1.2352142,29.5877838,1.8513184,44.3459167c0.081604,0.0130157,0.1632233,0.0260468,0.2448425,0.0390778
		c0.0748901-0.5214996,0.2212677-1.0440369,0.213501-1.5643005c-0.068634-4.5983887-0.1144257-9.1980133-0.2633972-13.7941437
		c-0.2775574-8.5634918-0.6242981-17.1247406-0.9298096-25.6873779c-0.0395203-1.1072998-0.0054321-2.2172699-0.0054321-3.4259186
		c1.2519073,0,2.3458252,0,3.5246887,0c0.0225372,0.1611023,0.0742645,0.3874817,0.0831604,0.6155548
		c0.479187,12.2568817,0.9682922,24.5133972,1.4178467,36.7713928c0.0781555,2.1311493-0.0574799,4.2695465-0.0072784,6.4025574
		c0.0288391,1.2258453,0.1703339,2.4580841,0.3741302,3.668396c0.2372437,1.4088745,1.0483704,2.3984375,2.4605865,2.831131
		c0.9187622,0.2815094,1.8287354,0.5920258,2.7492371,0.867569c2.4240875,0.7256622,4.3830872,2.1206665,5.7932129,4.2055511
		c0.9387665,1.3879089,2.1668549,2.2848816,3.7261047,2.8259583c3.3540192,1.1639404,5.9200134,3.2602692,7.4797668,6.4960632
		c0.5221863,1.083313,1.3768768,1.7922974,2.4202576,2.3278809c3.3265076,1.70755,5.4226074,4.3878479,6.2796936,8.0270386
		c0.3675995,1.560791,1.1108246,2.8509521,2.258194,4.0146637c2.2400513,2.2719879,3.5271149,5.0787354,3.385788,8.285614
		c-0.1256714,2.8514099,0.2247772,5.5103149,1.3791962,8.1426544c1.0556488,2.4071808,0.8712921,4.9351196-0.052475,7.3911285
		c-0.8024139,2.1333466-1.1822662,4.2789001-0.9783936,6.6074829c0.2289124,2.6146698-0.8241119,4.9447327-2.5145569,6.9420776
		c-0.5804596,0.6858063-1.3371277,1.2266998-1.8893585,1.931076c-0.8263855,1.0540466-1.5636749,2.180603-2.2970123,3.3036804
		c-0.3096466,0.4742126-0.5037994,1.022583-0.7660522,1.5291748c-1.3973083,2.6994324-3.548584,4.4233704-6.5498962,5.0325317
		c-1.8595734,0.3774414-3.5710449,1.0639343-4.9538574,2.4075012c-2.5307922,2.4589233-5.5586548,3.5042725-9.073349,3.4948425
		c-2.3890991-0.0064087-2.3894348,0.1248169-4.0034332,0.9624023c-0.0613098-0.5248413-0.1301422-1.0166016-0.1732941-1.5106506
		c-0.0439606-0.5033875-0.0626373-1.0090027-0.1057281-1.7393799c4.9674225,2.6358948,8.9958649,0.5975037,12.9706879-2.3867493
		c-0.3672943-0.2886963-0.6721191-0.6251831-1.0510101-0.8088684c-1.4360199-0.6961365-2.4946594-1.7966309-3.2793427-3.1337585
		c-1.0734711-1.8292236-2.6455536-2.6244507-4.7132263-2.5746155c-1.0211792,0.0245972-2.0427094,0.0623474-3.063736,0.0536194
		c-0.425766-0.0036011-0.8506165-0.112854-1.2700195-0.1731873c-0.0000763-0.7668762,0.3183746-1.0899658,0.9293976-1.105896
		c1.1977692-0.0312195,2.3981323-0.0957336,3.5930634-0.0444641c0.5867767,0.025177,1.026123-0.0686951,1.4546051-0.4828491
		c0.6041107-0.5838623,1.2667694-1.1075745,1.9103851-1.6499329c1.0447845-0.8804016,2.1635437-1.5476074,3.5581055-1.8208618
		c2.1263428-0.4165955,3.7636108-1.4741516,4.6589203-3.6458282c0.8299561-2.0132751,2.076828-3.7964478,4.1197815-4.8594055
		c0.1865387-0.0970459,0.2624969-0.5447235,0.2670746-0.8315735c0.032074-2.0037537-0.0966644-4.0200195,0.0892181-6.0076447
		c0.1149902-1.2297516,0.7384491-2.4050446,1.0371704-3.6283569c0.1012726-0.4147949,0.039093-0.9800415-0.1751099-1.3424225
		c-0.9444427-1.5977325-1.3926849-3.3132782-1.4442749-5.1489105c-0.0371399-1.3223114-0.0622406-2.6449738-0.089798-3.9675598
		c-0.0170746-0.8191986-0.2696991-1.5328369-0.9110413-2.0768738c-2.3609772-2.0028534-3.4272766-4.7185974-4.2225342-7.5967407
		c-0.0986023-0.3567963-0.3613892-0.7783356-0.6702118-0.9499359c-3.2033539-1.779953-5.8899078-4.0409546-7.3668976-7.5161896
		c-0.1227417-0.2888031-0.4741974-0.6039124-0.774231-0.6749268c-3.5897827-0.8495941-6.2923279-3.0205994-8.6575317-5.7145538
		c-0.1579132-0.1798706-0.3406067-0.3387604-0.5194244-0.4988403c-0.0343933-0.030777-0.1047363-0.0213623-0.2805176-0.0512085
		c0,0.6978912-0.0184631,1.376709,0.0028381,2.0542755c0.2266388,7.2110596,0.4370728,14.4227142,0.6959686,21.6326294
		c0.4185486,11.6567993,0.8943176,23.3115387,1.2989349,34.968811c0.2607574,7.5122681,0.4796906,15.0252686,1.6377869,22.4696045
		c0.5040283,3.2398987,1.1407013,6.4552307,2.5076904,9.4637451c2.7463379,6.0441589,7.5304718,9.2554016,14.0539246,9.9787292
		c5.1431732,0.570343,10.1273499-0.3305054,15.0275574-1.7828674c7.0199432-2.0805664,13.6850281-4.9454041,19.4842682-9.5057373
		c4.3467712-3.4181213,8.0518646-7.4800415,11.269577-11.9789124c0.4007568-0.5603333,0.7272644-1.1745911,1.0757904-1.7710876
		c0.1332245-0.2279968,0.231781-0.4762573,0.3929596-0.813324c-7.0523682-0.0021973-14.1128845,0.8152161-21.0593872-2.0180359
		c0.4407959-0.3088989,0.6902313-0.4916687,0.9473877-0.6627502c3.3775482-2.2475891,6.7290497-4.5357361,10.1411896-6.7294922
		c4.5155487-2.9032288,8.3893127-6.5114746,11.9490967-10.5001221c6.5718079-7.3636017,11.7243042-15.5976563,15.256134-24.8201752
		c0.9660034-2.5225372,1.7492676-5.1149597,2.6243286-7.6726074c0.1027832-0.3003845,0.2562256-0.5834656,0.4854126-1.0968475
		c0.6080627,1.023407,1.1756287,1.8342438,1.5995178,2.7143402c4.3129883,8.9545135,7.2187195,18.303299,8.0680237,28.2613068
		c0.8626099,10.1138306-0.4146423,19.9936523-3.2169189,29.6783142c-1.4923706,5.1575012-3.3918762,10.1971741-5.1101379,15.2891846
		c-0.0565186,0.1675415-0.140686,0.3256836-0.3098145,0.7110901c-0.6825867-0.8693542-1.4177856-1.5581665-1.8511963-2.4020996
		c-1.5752258-3.0671997-3.0779419-6.1728516-4.5468445-9.2928467c-0.5464478-1.160675-0.9243774-2.4006653-1.4434204-3.7745056
		c-0.3513794,0.459259-0.6636353,0.7982483-0.8980103,1.1845703c-2.0574341,3.3910828-3.9428711,6.8986206-6.1755371,10.169281
		c-10.4483948,15.306366-14.5601044,21.2341003-32.4790955,32.4924316
		c-7.111618,4.4680786-14.6602783,8.1125793-22.262085,11.6535645c-4.9873352,2.3231812-9.9094696,4.7784424-14.3699188,8.0444336
		c-7.1107788,5.2066345-12.5711823,11.8329773-16.7401581,19.5621948c-0.0271759,0.050354-0.0756836,0.0892639-0.2089996,0.2422485
		c-0.5203857-0.598175-1.0713501-1.1355591-1.5106506-1.7524414c-2.2831879-3.2062988-4.3796539-6.559906-6.8382874-9.6235962
		c-4.0542145-5.0519714-9.1027832-9.0296021-14.7993011-12.0562744c-6.6815338-3.5500183-13.4979858-6.8483276-20.285675-10.1954346
		c-9.0969696-4.4858093-17.5132446-9.9016724-25.2134018-16.5957031c-6.6630554-5.79245-11.887825-12.6208801-16.629425-19.9194031
		c-2.4875717-3.82901-4.7959671-7.7744446-7.1927338-11.6626892c-0.3097229-0.5024719-0.6643372-0.9772339-1.0801697-1.5845947
		c-2.2679138,5.4025879-4.0266037,10.8919983-7.9169312,15.5030823c-0.2305374-0.5073242-0.3927231-0.8406677-0.5355835-1.1821289
		c-3.4451523-8.2330627-6.1058083-16.6908569-7.4253349-25.54599c-2.0968895-14.071991-0.7641029-27.7520599,4.6389122-40.9636536
		c1.0217667-2.4984894,2.2058411-4.931427,3.3493652-7.3785248c0.2327423-0.4980011,0.619957-0.9237671,1.057106-1.5588074
		c0.4248352,1.0869293,0.7877426,1.9655762,1.1138,2.8577728c1.8661423,5.1062469,3.6133118,10.2582703,6.1885147,15.0763245
		c2.8497772,5.3318329,6.4367828,10.1569824,10.2811356,14.7805176c4.4300308,5.3280029,9.6553116,9.7869568,15.5553818,13.4394226
		c2.2482224,1.3917542,4.4929199,2.7893066,6.7323074,4.1952209c0.4473953,0.2808838,0.863327,0.6118774,1.480835,1.0535278
		c-6.9431686,2.3768005-13.8603134,2.700531-21.1082382,1.8423767c0.2520523,0.4962463,0.3547745,0.7244568,0.4793625,0.940033
		c6.3476334,10.9832458,15.8062744,18.0579834,27.7124481,22.0466309c4.7979736,1.6073608,9.671051,2.8916931,14.750412,3.1998291
		c3.9575806,0.2400818,7.8164063-0.1309509,11.3677826-2.087677c3.8439484-2.1179199,6.0806274-5.5314026,7.5561218-9.5341797
		c1.4349976-3.8930359,2.2162323-7.946991,2.4575043-12.0593872c0.529892-9.0317383,0.9141541-18.0725708,1.2975464-27.1122742
		c0.4356995-10.2729492,0.7985687-20.5489807,1.2060852-30.8231506c0.420578-10.6030884,0.9270325-21.2034454,1.2458038-31.809494
		c0.103302-3.4378967,0.5222778-2.4320221-2.402298-4.112854c-2.1684418-1.2462769-3.8984528-2.8566284-5.2387085-4.9622345
		c-0.4316711-0.6781769-1.1077423-1.2535706-1.7840424-1.7098083c-0.8661346-0.5843048-1.8279877-1.0382233-2.779541-1.4819336
		c-2.3847809-1.1120148-3.9601746-2.995636-5.0552063-5.3086395c-0.5651093-1.1936493-1.4153137-2.0511932-2.5047455-2.7517853
		c-1.0595703-0.6813202-2.1201782-1.3791199-3.088089-2.181076c-1.7680054-1.4648438-2.8344879-3.405014-3.437973-5.5990448
		c-0.2439423-0.8868408-0.7312317-1.5015259-1.5081787-2.0222168c-3.1287994-2.0969696-5.2743835-4.8827515-5.7499084-8.7363434
		c-0.1514587-1.2273712-0.8691635-2.0725555-1.7268829-2.8595886c-1.6454926-1.509903-2.9879532-3.2434082-3.4939575-5.4582367
		c-0.2792435-1.2222443-0.3077774-2.4997711-0.4944305-3.7456512c-0.3648148-2.4350586-0.2160187-2.584259-2.7154617-2.9266968
		c-2.6928635-0.3689575-5.4500732-0.2579956-8.177887-0.384903c-2.2462082-0.1044769-4.4908447-0.2445679-6.7354355-0.3811035
		c-0.9367676-0.0569763-1.4836121-0.6328888-1.7116318-1.4833221c-0.2088318-0.7789001-0.449646-1.5847473-0.4489594-2.3785248
		c0.0041809-4.8378601-0.0206757-9.6791229,0.1574326-14.5121384c0.1001511-2.7175522-0.1054611-2.4629822,2.6738892-2.7342911
		c2.6869431-0.2623062,5.4013062-0.2355804,8.1017609-0.3725739c0.7455826-0.0378265,1.4954453-0.1594238,2.2239685-0.3269272
		c1.1099777-0.2552032,1.5370407-0.7442093,1.5556564-1.8878479c0.0155716-0.9570999-0.0659409-1.9234924-0.1931839-2.8738785
		c-0.485733-3.6276779-0.0749054-7.0447769,1.9477234-10.2201462c0.5171661-0.8119049,0.8104019-1.9366226,0.7740021-2.9012833
		c-0.1437912-3.8098297,1.4033127-6.8261414,4.0657654-9.3673477c1.0382156-0.9909286,1.7520447-2.1500626,2.0725327-3.5216675
		c0.8562469-3.6647034,3.0417099-6.1608429,6.4229965-7.7569427c0.7857666-0.3709106,1.655365-1.0954895,1.9578094-1.865181
		c1.1499023-2.9263611,3.3919678-4.6519318,6.1044006-5.7973938c1.4556274-0.6147079,1.896225-1.4039612,1.9755707-2.9668045
		c0.5595703-11.0202408,5.7428894-19.3590355,15.094635-25.0737c19.6287537-11.9947338,42.5153809,0.8877945,46.5231323,20.6253891
		c1.0508881,5.1754837,0.8030701,10.3291321-0.9195251,15.3016968c-1.023819,2.9554443-0.4235992,5.6048431,0.6354523,8.2898865
		c0.3390045,0.8594971,0.8369751,1.6653442,1.3299103,2.4533691c1.8947144,3.0289459,1.8656006,6.1699753,0.7104645,9.4382935
		c-0.2342682,0.6628647-0.3277435,1.5070038-0.1371307,2.1666641c1.0087128,3.4909592,0.4548035,6.684845-1.4058533,9.7688904
		c-0.7493591,1.2420807-1.2192383,2.654892-1.78862,4.0017014
		C200.6872864,111.4412155,200.7290802,111.7312088,200.691925,112.1626205z M166.0245056,192.095459
		c0,0.5668335,0.0028076,0.8647003-0.0003815,1.1625061c-0.0814209,7.6355591-0.1360016,15.2715454-0.2507935,22.906601
		c-0.2896881,19.2679138-0.6274567,38.5351105-0.9050293,57.8032074
		c-0.1809998,12.5635681-0.1739807,25.1339417-1.6006317,37.6424255c-0.3575897,3.1353455-0.8553772,6.2482605-1.9310455,9.242157
		c-0.8469086,2.3571472-2.508194,3.707489-4.9738007,3.7618713c-3.2049408,0.0707092-6.432251,0.1164246-9.6194-0.1687927
		c-12.5373993-1.1218262-23.7057037-5.8025513-33.7545242-13.3027649
		c-6.3835602-4.7645264-12.1831436-10.1073303-17.1905746-16.3444519
		c-8.177269-10.1853333-14.2471008-21.5091858-18.7559738-33.7173462c-0.7341385-1.987793-1.4113541-3.996582-2.1910706-6.2121582
		c-0.0152054,0.3156891-0.0400696,0.4008942-0.0198288,0.4735413c0.7880249,2.8286743,1.4448929,5.7025146,2.393898,8.4762878
		c5.851059,17.1016846,15.1757965,31.9454346,28.6829453,44.0868835c5.7040024,5.1272888,12.117424,9.1490173,18.8604431,12.7061157
		c7.4065552,3.907196,15.1898956,6.908783,23.0984039,9.6087646c7.4308472,2.5368958,14.1589661,6.1489563,19.1202087,12.4761353
		c0.2417908,0.3083496,0.5688629,0.5496826,0.9635162,0.9239807c0.0204773-0.3546143,0.0355835-0.5014038,0.0365143-0.6482544
		c0.0935669-14.7908325,0.1920776-29.581665,0.2771606-44.3725586c0.1302185-22.6374817,0.2537231-45.2749939,0.3749847-67.9125061
		c0.0649261-12.1154175,0.1215668-24.2308807,0.1653442-36.3463745c0.0011597-0.3167419-0.0935211-0.7823334-0.3099976-0.9241638
		C167.7798615,192.9482269,166.9883881,192.5967255,166.0245056,192.095459z M103.7877045,132.7620239
		c0.5007935,0,0.9457779-0.0154724,1.3894196,0.0023193c6.935173,0.2779694,13.8739929,0.4882202,20.8043365,0.8577728
		c11.4002075,0.6078949,22.7919159,1.3763885,34.192749,1.9709015c10.5171356,0.5484314,21.0279236,0.1039276,31.5322418-0.4860077
		c6.8394165-0.3841095,13.6765137-0.8176422,20.5189056-1.1375122c7.0232849-0.3283691,14.0525055-0.5278473,21.0774231-0.8236542
		c1.7078857-0.0718994,3.4113617-0.2810974,5.1110535-0.4775543c0.2477112-0.0286407,0.6234589-0.3100128,0.6633301-0.5256348
		c0.1275482-0.6893311,0.1249237-1.4027557,0.1759491-2.1570435c-0.4976044,0-0.8535156-0.0108795-1.2085724,0.0016479
		c-4.5044098,0.1588287-9.0088501,0.3168793-13.5129852,0.4832306c-10.4496613,0.3859711-20.8990479,0.7785645-31.3486938,1.1643829
		c-13.6387482,0.5035706-27.2793732,0.5818634-40.9190826,0.0749664
		c-14.2927399-0.5311127-28.5833969-1.1186523-42.8757935-1.6596832c-1.8519745-0.0700989-3.7089005-0.009613-5.6002808-0.009613
		C103.7877045,130.9254303,103.7877045,131.7813568,103.7877045,132.7620239z M143.4869995,78.9739761
		c-0.6217804,0.9438629-1.113266,1.5609589-1.4648132,2.2495499c-0.8220978,1.6102295-1.980545,2.8775406-3.6277771,3.6191483
		c-1.9127502,0.8611526-3.0119476,2.2201767-3.4959564,4.3197479c-0.5437622,2.3588333-1.8310547,4.3897629-3.8993835,5.7728424
		c-0.6164703,0.4122238-0.7951813,0.8310394-0.740036,1.537056c0.256897,3.2890167-0.3662567,6.3386078-2.5325775,8.9577255
		c-0.2011566,0.2432098-0.3132706,0.6804733-0.2611771,0.9934082c0.3420029,2.055191,0.7405167,4.1009674,1.1407547,6.2586136
		c-0.0505219-0.0035324,0.1226807,0.025528,0.2942963,0.0180359c3.0013885-0.1309052,6.00354-0.2476425,9.0036163-0.4042587
		c8.5807343-0.4479218,17.1594696-0.9359894,25.741333-1.361145c4.772049-0.2364044,9.5384521-0.295578,14.3154144,0.1726151
		c2.6447449,0.2592087,5.3372345,0.1809158,7.9995575,0.0615845c1.9655609-0.0880966,2.3531036-0.5755844,2.5711212-2.4655075
		c0.309906-2.685997,0.9902802-5.2037659,3.0423584-7.1327744c0.5192871-0.4881668,0.5931854-0.9851227,0.4546051-1.6835403
		c-0.5322418-2.6824875-1.0719147-5.3667221,0.055481-8.0686035c0.1994476-0.4779816-0.1000519-1.1643066-0.1934967-1.9620514
		c-3.5592651,2.2084732-6.5764923,4.8401642-10.6054993,5.5716019c-0.0469208-0.1990433-0.093338-0.3116989-0.0974884-0.4258881
		c-0.1401672-3.8447952-0.2891388-7.6893997-0.3891754-11.5352783c-0.008194-0.3152008,0.2458649-0.7329254,0.5068665-0.9425125
		c1.0060883-0.80793,2.0568848-1.561348,3.1068573-2.3128891c0.4813843-0.3445511,0.452774-0.6747055,0.1417694-1.1277161
		c-0.7305908-1.0642014-1.4570007-2.1345901-2.1149292-3.2440948c-0.3582306-0.6040649-0.7698059-0.8861313-1.491806-0.900177
		c-1.8086548-0.035202-3.4909973-0.5785141-5.0218201-1.5372467c-0.9409637-0.5893173-1.8195038-1.2793961-2.7683411-1.8544617
		c-0.3070526-0.1861191-0.7772522-0.2760925-1.123703-0.1963501c-2.5104218,0.5778351-5.0180817,0.7295532-7.4263763-0.3025208
		c-1.27005-0.544281-2.335495-0.492157-3.4732666,0.250946c-1.4743347,0.962883-3.0803528,1.6279678-4.8616028,1.771698
		c-0.6507568,0.0525208-1.304245,0.0714722-2.0656128,0.1114655c0.493866,1.5861893,1.2640686,2.925705,2.1971283,4.1740265
		c1.4186401,1.8979797,3.1338654,3.4897385,5.1643524,4.7095032c0.8621979,0.517952,1.23526,1.1222,1.1616974,2.1743774
		c-0.1550598,2.2172012-0.1808472,4.4442673-0.227066,6.6679764c-0.0310059,1.4915543-0.0059052,2.9842758-0.0059052,4.6436081
		C153.5743713,92.8387756,147.6160736,87.1199951,143.4869995,78.9739761z M268.2271118,256.5615234
		c-0.8363037,2.1473389-1.7287292,4.2747192-2.4992676,6.4453735c-3.5528564,10.0083008-8.3770447,19.3341675-14.7972412,27.813446
		c-6.8429108,9.0375671-14.716507,16.9577637-24.4855499,22.8744202
		c-8.6536713,5.2411499-17.878891,8.8796997-27.9043579,10.4562378c-2.0588226,0.3237915-4.131424,0.8164673-6.073761,1.5566101
		c-2.1760712,0.8292542-3.0606995,2.7235107-3.1373291,5.1140137c1.5578156,0.2052307,3.0303497-0.0380554,4.4891663-0.3488159
		c5.40271-1.1509705,10.4950256-3.2172241,15.5683899-5.3329163c12.7946777-5.3355713,24.2949677-12.6060486,33.8512573-22.7567444
		c9.4629211-10.0515442,16.6151276-21.5788879,21.7826385-34.3563843
		C266.5085449,264.3488464,267.6587524,260.5631104,268.2271118,256.5615234z M159.1665497,270.5617065
		c-0.0628815,0.0085144-0.1257782,0.0169678-0.1886597,0.0254822c-0.0132141,0.199585-0.024353,0.399353-0.0399628,0.5987854
		c-0.3565216,4.5516357-0.6095276,9.114502-1.1005554,13.6515808c-0.463562,4.2831116-1.4529572,8.4640503-3.375412,12.3676147
		c-2.2363739,4.5410767-5.5683136,7.798584-10.6398773,8.958313c-3.2770081,0.7493286-6.586853,0.6463318-9.8375092-0.0596619
		c-3.8683624-0.8402405-7.6919708-1.886322-11.5364685-2.8370667c-0.3091278-0.076416-0.6299591-0.1055298-0.945343-0.1566467
		c0.872673,0.5246887,1.7700195,0.8539429,2.6345139,1.2541199c4.0277481,1.8644714,8.2113571,3.2227173,12.594902,3.946991
		c3.1967468,0.5281982,6.397583,0.7480469,9.5563965-0.1794434c4.8025513-1.4101868,7.8656769-4.7388916,9.7078552-9.2309265
		c3.3870544-8.2591858,4.2337646-16.9006958,3.5921783-25.7333374
		C159.525116,272.2933044,159.3108521,271.4300537,159.1665497,270.5617065z M221.6717987,303.5587463
		c-0.0379486-0.1089172-0.0758972-0.217865-0.1138458-0.3268433c-1.3565063,0.3581848-2.7325287,0.6558228-4.0658569,1.085907
		c-4.0457153,1.3048706-8.1370392,2.2905273-12.4240265,2.3476563c-7.5549622,0.1006775-13.1082916-3.0788879-16.2122955-10.0367737
		c-1.0793457-2.4194641-1.8647919-5.0099487-2.4612732-7.5969238c-1.2670135-5.4952393-1.5016937-11.1211548-1.7086334-16.7385864
		c-0.0111542-0.3027954-0.0402527-0.6049805-0.0609741-0.9074707c-0.1059875-0.0036926-0.2119904-0.0074463-0.3179474-0.0112
		c-0.1605835,1.1763916-0.4858551,2.3575439-0.4516296,3.5281982c0.1139984,3.8982849,0.2341003,7.8039551,0.5850067,11.6856995
		c0.3544159,3.9204407,1.1220703,7.7802124,2.570694,11.4786377c2.9582825,7.5526123,8.3740845,11.0301208,16.4555511,10.5415344
		c3.5977478-0.2175293,7.0599976-1.0763245,10.4522552-2.221283
		C216.5245056,305.507782,219.0889893,304.5061035,221.6717987,303.5587463z M190.9520874,66.1440353
		c-0.0987854-1.0403137-0.1560364-1.8370285-0.2524567-2.6289711c-1.0206451-8.3827782-7.3296204-15.1245079-15.5714264-16.5121117
		c-8.6323853-1.4533615-16.1085968,2.4161301-20.5640411,10.2375526c-0.2934265,0.5150909-0.5177155,1.0946617-0.6434326,1.6726913
		c-0.1091766,0.5020218-0.0329742,1.0443878-0.0387115,1.5689278c0.6119537-0.0312233,1.2255402-0.0456657,1.8347778-0.1048584
		c0.1629333-0.0158272,0.3225555-0.1546822,0.4668732-0.2601013c3.2439575-2.3693771,6.8036194-2.7501678,10.5222321-1.4820595
		c1.6599884,0.5660782,3.2395935,0.6095428,4.9407959,0.3267632c3.4813538-0.5786629,6.627182,0.2419739,9.2345581,2.701973
		c1.0169373,0.9594536,2.1947327,1.443737,3.5509796,1.5560417c1.5359039,0.1271744,2.907135,0.6733322,4.182785,1.5202065
		C189.3047638,65.197998,190.0342712,65.5959015,190.9520874,66.1440353z M154.7230377,168.8184662
		c-0.6921844,2.0358734-1.2879791,3.9430542-1.9893799,5.8105316c-0.7973022,2.1227875-0.5991364,4.1026306,0.8004456,5.8625336
		c0.9104462,1.1447906,1.9231262,2.2386627,3.0348053,3.1851349c1.3717346,1.1678467,3.0276184,1.8347473,4.9345245,2.1664276
		c-0.3167572-2.1470642,0.269043-3.9906311,1.0593414-5.8016052c0.4866028-1.1151123,0.5572205-2.2889252,0.1394501-3.4333801
		C161.2655334,172.6722107,158.4060364,170.2124634,154.7230377,168.8184662z M210.2379913,236.6036835
		c0.34935-0.2166748,0.6908112-0.331665,0.8887939-0.5673218c1.0769653-1.2818909,2.5984039-1.679718,4.1005096-2.0919342
		c1.6885986-0.4633789,2.7239685-1.5262756,3.256073-3.1748047c1.4504089-4.4935608-0.4180756-8.1850281-2.7712708-11.9122162
		c-0.3392029,0.3745117-0.6990051,0.6153564-0.8344879,0.9476776c-0.6850739,1.6803894-2.0175934,2.7079163-3.4613647,3.6699066
		c-1.6233673,1.0816498-2.5181732,2.640274-2.6695557,4.5867004
		C208.5180817,231.0011597,209.3143921,233.7635193,210.2379913,236.6036835z M202.4607239,215.6396332
		c-0.0110321-2.2497406,1.0141754-3.8234863,2.2750702-5.3327332c0.7887573-0.9441223,0.8881683-2.1522369,0.644928-3.3469543
		c-0.471817-2.3174133-1.6840668-4.2236481-3.3849792-5.8235626c-1.5370789-1.4457855-3.361496-2.3607635-5.5465851-2.8767853
		c0.3140869,2.2572479-0.4789734,4.1596069-1.2541199,6.0930176c-0.2991638,0.7461395-0.4625549,1.6885223-0.2957153,2.4562225
		C195.806076,210.9808502,198.3820801,213.7970428,202.4607239,215.6396332z M219.1535339,246.8481598
		c-0.4496918,0.1235352-0.7712555,0.1407928-1.0116119,0.289444c-1.5316315,0.9474945-3.1849976,0.8926849-4.8873749,0.7281799
		c-0.6993256-0.0675659-1.489151-0.0451813-2.124527,0.2141113c-3.2730255,1.3355713-5.5797882,3.6618958-6.8384399,6.9961243
		c-0.2170563,0.5750122-0.1071472,0.9368286,0.5359955,1.0266418c1.6216888,0.2266235,2.9673309,1.0480042,4.3047028,1.9220886
		c0.8925323,0.583374,1.9116211,0.667572,2.9515839,0.46521c1.3943176-0.2713013,2.6078186-0.9090881,3.6242065-1.888916
		C218.4424591,253.9650421,219.1693115,250.6141815,219.1535339,246.8481598z M164.1514893,176.7713318
		c0.2630157,2.0842133-0.4500275,3.9601593-1.1834717,5.8422394c-0.4802094,1.2322083-0.3892212,2.4888916,0.1638794,3.6831818
		c1.7309113,3.7374268,4.7547913,5.8408508,8.6717987,6.7910004c0.1618347,0.0392609,0.3414917,0.0050201,0.5194855,0.0050201
		c0-1.016571-0.1223755-2.0178833,0.0337677-2.9736481c0.162384-0.993927,0.6715546-1.9273224,0.882782-2.918396
		c0.1641235-0.7700806,0.2677917-1.6212616,0.114975-2.3792419
		C172.5746307,180.9516754,168.2169495,177.1530609,164.1514893,176.7713318z M212.5744629,259.9538879
		c-0.3262329,0-0.5879974,0.0024414-0.8497009-0.0003967c-1.3104706-0.0141602-2.6314697-0.127533-3.6299744-1.0621338
		c-1.7717743-1.6584473-3.8415527-1.9274902-6.1121674-1.5708618c-2.9026947,0.4558411-5.2460022,1.8792419-7.10495,3.8589783
		c1.2357635,1.3433228,2.4919281,2.5375977,3.5386658,3.8935852c1.1005096,1.4257202,2.4547424,2.1558533,4.2155304,2.1864624
		c4.0120697,0.0697021,8.4993896-3.0488892,9.8440399-6.8309937
		C212.5223846,260.29776,212.5338898,260.1545105,212.5744629,259.9538879z M202.8566284,98.1484299
		c-0.430069,0.1536713-0.7863922,0.2241821-1.0834045,0.3968048c-1.4093628,0.8190842-2.9216614,1.1227112-4.5445099,1.2309647
		c-1.0010376,0.0667801-2.0929108,0.3815689-2.9315338,0.9176331c-1.4532776,0.9289246-2.5092163,2.311142-3.2562408,3.8879166
		c-0.7352448,1.5519638-1.1134033,3.1910095-1.2068787,4.8469772c1.9109802,0.1891479,3.7441559,0.2609787,5.5342102,0.5771866
		c1.969635,0.3479538,3.5148926-0.2179794,4.8937531-1.5896378
		C203.1374969,105.5557861,203.4666595,102.0653305,202.8566284,98.1484299z M134.2876282,86.6929092
		c-2.12146,0.1820145-3.9694824-0.5310287-5.8289032-1.2110443c-1.0990524-0.4019318-2.1815338-0.2591476-3.2451553,0.1847916
		c-3.6389236,1.5188141-6.3763199,6.4259109-5.8170395,10.2492599c1.6477966-0.0893555,3.2998734-0.3886719,4.9043427-0.2238998
		c3.7700958,0.3871841,6.3421478-1.316452,8.2843628-4.301918
		C133.4907532,89.9981613,134.0823212,88.4725113,134.2876282,86.6929092z M170.5977631,60.2977905
		c0.1652069,0.4243126,0.2245331,0.7684555,0.409668,1.019928c0.9429932,1.2809219,1.0765228,2.7381973,1.1278229,4.2687683
		c0.1572723,4.6912766,4.4881897,8.4153671,9.1437225,8.0623398c0.3821106-1.9087296,0.7487183-3.7809067,1.1332245-5.6493912
		c0.3996277-1.9420776-0.2024078-3.601593-1.5827332-4.9176483
		C177.9690094,60.3545151,174.4592438,59.889286,170.5977631,60.2977905z M116.9853973,109.7791824
		c1.634758-1.9603882,3.724556-2.039238,5.790947-2.3187256c0.8389816-0.1134872,1.7142715-0.5731201,2.3986206-1.1013489
		c2.0887146-1.612236,3.2507095-3.8205185,3.6406631-6.4147186c0.1699219-1.1305161,0.2111053-2.2804031,0.3006287-3.3055038
		c-2.0986862,0.0615616-4.0119019,0.1448135-5.925827,0.1667709c-2.2631226,0.0259552-3.9975281,0.9264832-5.1050339,2.9351044
		c-0.2603455,0.4722061-0.5313568,0.9436111-0.7357712,1.4407578
		C116.2416534,103.8759384,116.0352631,106.6202087,116.9853973,109.7791824z M185.506073,190.8865662
		c0.3179932,2.0061951-0.0918274,3.8366089-0.7401276,5.6334381c-0.5887451,1.6318207-0.3769379,3.1881714,0.4514465,4.6866302
		c1.6874695,3.0524902,4.2790222,4.9664459,7.5598145,6.0108643c0.2141876,0.0682068,0.4446106,0.085434,0.7558136,0.1425934
		c-0.0111389-2.3581238,0.7692566-4.4323425,1.5208588-6.5306091c0.2458191-0.6861877,0.2558441-1.5716553,0.0625763-2.281189
		C194.1326599,194.9363861,189.4391937,191.2016602,185.506073,190.8865662z M150.9959259,177.7439117
		c-0.2408447-2.2647858,0.5110321-4.0336609,1.525528-5.7428894c0.5831451-0.9825287,0.7605286-2.0683441,0.5384064-3.212265
		c-0.7420959-3.8217926-2.9501038-6.4810944-6.4247742-8.1397247c-0.2027588-0.0967712-0.4310455-0.1399841-0.6805267-0.2185516
		c-0.0501251,0.1772308-0.1081543,0.2880554-0.1088867,0.399231c-0.0112,1.6809082-0.658844,3.0520935-1.8541718,4.2415161
		c-0.9417267,0.937088-1.269577,2.1854401-1.1331329,3.4897308c0.4237213,4.0506897,2.7872467,6.7035522,6.2759857,8.4965363
		C149.6539307,177.3245087,150.2367249,177.4684143,150.9959259,177.7439117z M174.6153412,183.9023438
		c0,1.1307831,0.1257629,2.2186279-0.0351563,3.2622528c-0.1627502,1.055481-0.6442566,2.0578766-0.9225311,3.1004944
		c-0.3256226,1.2200165-0.0621643,2.3848724,0.5016785,3.4881287c1.6009521,3.1325836,4.2277374,4.9987183,7.5066071,6.0444183
		c0.4983063,0.1589355,1.0185394,0.2491302,1.6830902,0.4080658c-0.4345703-2.2396851,0.1873779-4.181778,0.8312836-6.1260376
		c0.4425354-1.3362732,0.2187347-2.6136627-0.4798584-3.8123779c-1.1855316-2.0344086-2.7415771-3.718689-4.7650604-4.944397
		C177.6400452,184.5382538,176.2414246,184.0571442,174.6153412,183.9023438z M208.0838623,225.3185272
		c0.2381897-0.2689819,0.462326-0.4221802,0.545105-0.6313629c0.6641235-1.6777191,2.1744385-2.4967804,3.4924469-3.5206604
		c1.1977386-0.9304504,1.7210846-2.1941528,1.7024994-3.702301c-0.0450287-3.653656-1.6647339-6.5110779-4.4533997-8.7581177
		c-0.6595764-0.5314789-1.4064026-0.9545746-2.2732697-1.534729c-0.2579193,2.4801788-1.3188171,4.3403015-2.7586365,6.0641479
		c-0.4353333,0.5211792-0.6124725,1.3916473-0.6210938,2.1056213c-0.0139923,1.1587524,0.0724945,2.3552551,0.3589172,3.4736786
		C204.7202301,221.3286743,205.9272919,223.5451508,208.0838623,225.3185272z M156.8265076,61.3391571
		c2.1829987,0.8313637,2.7484741,2.6720047,3.3812256,4.517868c0.2505493,0.7309418,0.7108459,1.4879761,1.2863617,1.9926834
		c2.7085724,2.3752441,5.8848419,3.082016,9.4034882,2.4071808c0.7889099-0.1512909,0.9232635-0.5048218,0.7352448-1.264473
		c-0.3374176-1.3633041-0.6339111-2.7495804-0.7820435-4.1438446c-0.2115784-1.9912605-1.1379395-3.4522018-2.8641357-4.4110107
		c-1.7627869-0.9791412-3.6800385-1.2730522-5.663147-1.1053886
		C160.3903351,59.4956207,158.5738831,60.0293121,156.8265076,61.3391571z M138.9902496,151.051651
		c-0.2365417,0.4153748-0.4419098,0.8091888-0.6778107,1.1837311c-0.5830078,0.9255829-1.0214996,2.0165405-1.8028259,2.7281189
		c-1.9039459,1.7339783-2.3370056,3.7737427-1.7069702,6.1346436c0.9581146,3.5903625,3.2186279,6.058548,6.4617004,7.5420685
		c0.4958344-1.2703094,0.921524-2.4735718,1.4372406-3.6369019c0.2773438-0.6255341,0.7041168-1.1857147,1.0721741-1.7698822
		c1.1418152-1.8123779,1.3004303-3.7189178,0.4732666-5.6800537
		C143.1443939,154.9391022,141.6712799,152.6027222,138.9902496,151.051651z M144.5392303,65.9202499
		c0.2533569,0.16362,0.4817505,0.3729477,0.7507935,0.4745712c1.4530334,0.548851,2.4975891,1.5080261,3.3829346,2.8023911
		c1.3274994,1.9407883,3.3071594,2.8857269,5.6589661,2.7507706c1.396225-0.0801163,2.7956696-0.3624878,4.1578827-0.6989517
		c1.1424408-0.282196,2.1280365-0.9227753,2.873764-1.9772873c-1.5735474-1.2377014-2.4095306-2.9204636-3.106369-4.6965027
		c-0.4853058-1.2369347-1.4266052-1.9639893-2.6713715-2.3555946
		C151.98909,61.0881042,147.7705688,62.0735512,144.5392303,65.9202499z M132.7827759,158.7357635
		c0.3153076-0.5266571,0.656723-0.9546509,0.8464355-1.4417572c0.4779663-1.2271881,1.1687012-2.2715759,2.1333923-3.1857147
		c1.0857239-1.0288239,1.6600189-2.3742676,1.7085114-3.8673859c0.1221313-3.7610779-1.4637451-6.730423-4.3574982-9.0513763
		c-0.1454926-0.116684-0.3486938-0.1613617-0.58638-0.2667694c-0.3577576,1.8522034-1.4404297,3.0904999-2.9255066,4.016037
		c-1.5616455,0.9732056-2.1787262,2.4294891-2.1451874,4.2010345
		C127.5339203,153.226181,129.6250916,156.2005005,132.7827759,158.7357635z M151.1564484,72.4525375
		c-2.2043457-0.2684631-3.2429199-1.8599167-4.3657837-3.396843c-0.6805725-0.9315491-1.7042542-1.4479141-2.8542328-1.5465317
		c-4.0158691-0.344368-6.9797211,1.5003433-9.2887573,4.6062927c-0.3616486,0.4864578-0.5733948,1.0844345-0.8436737,1.6099091
		c0.1535492,0.1131058,0.1957245,0.163147,0.2483978,0.1796494c0.1997681,0.0625687,0.3999481,0.1450653,0.6053162,0.1651459
		c1.5331879,0.1497879,2.7127838,0.9195938,3.8595428,1.9146194c0.6934052,0.6016693,1.6452179,1.0310745,2.5498047,1.2411346
		C144.4904633,78.0208435,149.2921448,75.7716217,151.1564484,72.4525375z M125.0261612,84.2487335
		c2.3544159-0.6240463,4.2550583,0.1264038,6.1780319,0.9771881c0.729538,0.3227692,1.6455078,0.4034348,2.4546204,0.335144
		c3.1933899-0.2695313,7.1194611-3.5663605,8.1059418-6.7751312c-0.5694885-0.2223358-1.1652374-0.4121323-1.7222748-0.6818695
		c-0.9610596-0.4653473-1.9915161-0.8590164-2.8247986-1.5010376c-1.5120544-1.1650009-3.1352997-1.5213089-4.9053955-0.9641495
		C128.1962128,76.9344559,126.1296921,80.025795,125.0261612,84.2487335z M200.9974518,84.4088058
		c-1.0086517,2.2910919-3.0107574,3.2309494-5.0306396,4.2169189c-0.707901,0.3455505-1.2976379,1.0712433-1.7640991,1.7459641
		c-1.0485077,1.5166016-1.4942017,3.2601318-1.5685577,5.0964355c-0.0573273,1.4157333,0.0171356,2.8101044,0.6592865,4.0461197
		c2.1499786-0.4395142,4.2487335-0.8003616,6.3056335-1.3253098c0.7393036-0.1886749,1.5411072-0.6305847,2.0352173-1.1995087
		C204.3775482,93.8307953,204.103302,87.5986481,200.9974518,84.4088058z M219.1373749,232.826889
		c-0.2083588,0.1695099-0.4167633,0.2948761-0.5684662,0.4695129c-1.0679169,1.2295074-2.4324799,1.8802185-4.0012054,2.253067
		c-0.7342224,0.1745148-1.5224609,0.4988251-2.076767,0.9912109c-3.2105408,2.8518524-3.5124054,6.6012421-3.1929626,10.6480865
		c0.5515137-0.083374,0.9860077-0.1622162,1.4237671-0.212677c1.1838074-0.1364288,2.3812714-0.4359283,3.5511169-0.3538818
		c2.5113831,0.1761322,4.1348724-0.950058,5.1706238-3.1032104c1.1502533-2.3911743,1.4975128-4.9279633,1.1345825-7.5427246
		C220.4176025,234.8202515,220.0674286,233.6991425,219.1373749,232.826889z M183.6353455,64.4391327
		c0,1.0167694,0.0978241,1.9524078-0.0237885,2.8585815c-0.1670685,1.244957-0.4994354,2.4677963-0.762558,3.6997757
		c-0.5742188,2.6884232,0.7192078,5.9527893,3.0250397,7.5478058c0.3001862-0.2688217,0.6427307-0.5181961,0.9154968-0.8289108
		c2.2765808-2.5933914,3.4176941-5.6792755,3.8642883-9.0546875c0.028244-0.2134933-0.0193481-0.5099106-0.1526184-0.6609192
		C188.6685333,65.9243164,186.4832764,64.5161285,183.6353455,64.4391327z M126.0691223,147.6219788
		c0.3548813-0.6531067,0.5752182-1.2237854,0.9357147-1.6847992c0.5965424-0.7628937,1.1725311-1.6194611,1.9529419-2.1464233
		c2.3794556-1.60672,3.4532928-4.2877197,2.6515198-7.188324c-2.9772034,0-5.9731216-0.0118713-8.9684525,0.0246735
		c-0.2170944,0.0026398-0.5799026,0.3313141-0.6181412,0.5527802c-0.1470947,0.8518677-0.2840729,1.7250824-0.254364,2.5844269
		C121.8807602,143.0145874,123.8823013,145.26091,126.0691223,147.6219788z M126.4520645,107.5133972
		c-2.2056732,0.5932236-4.3116684,1.1509628-6.4125748,1.727272c-1.8780746,0.5151825-3.1006088,2.0094986-3.3138733,4.0776215
		c3.3507767-0.1773453,6.6903992-0.3541031,10.0608902-0.532486
		C127.2949295,110.9264984,126.9351425,109.189003,126.4520645,107.5133972z"/>
	<path style="fill:#FFFFFF;" d="M93.0199051,310.37677c0.621994,0.6701355,1.3115082,1.4129639,2.0598831,2.2192688
		c-1.8081055,1.622467-3.7823181,3.0422058-4.7388535,5.3538208c-0.9570847,2.3129578-0.7482529,4.6992188-0.5595322,7.2807617
		c0.4251328-0.2617493,0.716095-0.5074463,1.0518951-0.6352234c1.0207825-0.3883972,2.1037903-1.129364,3.082077-1.0190125
		c3.2697678,0.3688965,5.3567886-1.2713318,7.1913681-3.6015625c0.2602539-0.3305664,0.4844818-1.0773315,1.0529785-0.6274414
		c0.5033188,0.3982544,0.3834305,1.0812683-0.1082916,1.5112915c-1.2717209,1.1121216-1.4224472,2.4671326-1.0762939,4.0206909
		c0.4599152,2.064209,0.3784409,4.1260986-0.3263779,6.1343994c-0.516243,1.4709473-0.2966232,2.7242126,0.7974548,3.8970032
		c1.6402893,1.7583008,2.1500702,3.991333,2.3149643,6.3051147c0.0545197,0.7648315,0.2530365,1.2669983,0.9954071,1.6079407
		c2.4591217,1.1293335,4.3444214,2.8815613,5.4840698,5.3678894c0.5332184,1.1633301,1.2909012,1.7655029,2.6839066,1.7685852
		c1.6920853,0.0037231,3.299469,0.573822,4.7818069,1.4397888c0.6993332,0.4085388,1.4066772,0.8241272,2.1572723,1.1156616
		c0.399292,0.1550598,0.9568253,0.1974487,1.3435364,0.042511c2.8038101-1.1235962,5.6224365-1.8936157,8.6834335-1.1213989
		c0.5170746,0.1304321,1.1713715-0.1187439,1.7167969-0.3173828c0.4392395-0.1599731,0.8296204-0.4831848,1.2075958-0.77771
		c2.5843811-2.0137329,5.5174561-2.8663635,8.7678528-2.6225891c0.6309052,0.0473022,0.9642944-0.1712036,1.2613373-0.718811
		c0.5167847-0.9525757,1.2696838-1.6911011,2.3928528-1.888916c0.3895264-0.068573,0.8012848-0.0108948,1.2729187,0.1956482
		c-0.877655,0.8305664-1.7553253,1.6611023-2.5997162,2.4602051c0.0852509,0.1835632,0.09552,0.2635803,0.1352539,0.2828674
		c1.6849976,0.8182068,2.9890442,2.0851135,4.1710968,3.5040894c0.2481537,0.2979431,0.5612793,0.5424805,0.8493195,0.8063354
		c1.7103424,1.5666809,3.6091766,2.0613098,5.8027344,1.071991c0.9563904-0.4313049,1.9473114-0.6255493,3.2101288,0.1206665
		c-0.755661,0.386322-1.3273773,0.8001709-1.9644928,0.9736938c-0.8032684,0.2186584-1.6573181,0.2728271-2.4940948,0.3409729
		c-1.2962799,0.1055603-2.3895874,0.6174622-3.2232056,1.6006775c-1.9061584,2.2482605-4.3612366,3.3164368-7.2574921,3.4821167
		c-2.0527802,0.1174011-3.8956909,0.6761475-5.5648499,2.0049133c-2.0991516,1.6711426-4.598877,2.3262634-7.2841034,2.0366211
		c-2.3310776-0.2514954-4.5548859-0.0913391-6.8130035,0.7162476c-3.0660324,1.0965271-6.1510544,0.6601563-8.9715118-0.9114685
		c-2.1014709-1.1709595-4.2839279-1.9506531-6.6344147-2.4147644c-3.6364212-0.7180176-6.2847214-2.7418518-8.0264282-6.0901184
		c-0.5779419-1.1110535-1.6316376-2.1234741-2.7075119-2.7989807c-3.5176544-2.2086487-5.3168716-5.3647156-5.6921921-9.4169312
		c-0.1067047-1.151886-0.5469513-2.1351624-1.2442703-3.0361938c-2.0307083-2.624054-2.8246613-5.6164551-2.4751892-8.8879089
		c0.1133728-1.0613708,0.5651321-2.0828552,0.7354126-3.1429443c0.1436844-0.8945618,0.2980423-1.8605652,0.1119843-2.7223816
		c-0.8149109-3.7746582-0.2777634-7.2222595,2.1275406-10.3103027c0.3508301-0.4504089,0.7710648-0.8733215,1.0089035-1.3796082
		C92.1937943,312.5666504,92.5751419,311.4881592,93.0199051,310.37677z M98.6853409,351.8257446
		c0.2014771-0.8011169,0.3684769-1.5610962,0.5858612-2.306427c0.3073425-1.0536499,0.7417068-2.0565491,1.7088165-2.67453
		c0.9783325-0.6251831,1.5098038-1.5541077,1.4874039-2.6325989c-0.0358658-1.7269897-0.1686172-3.4701538-0.4767075-5.1671753
		c-0.2214661-1.2199097-0.7040558-2.419281-1.2402573-3.5468445c-0.4511948-0.948822-1.2019577-1.0613403-1.9212646-0.5613708
		c-1.3974228,0.9711914-2.7984238,1.938385-4.222702,2.8693237c-0.9265518,0.6055603-1.558075,1.3914185-1.804985,2.4770203
		C91.835022,344.5324097,94.5938721,350.0245667,98.6853409,351.8257446z M91.8003769,339.6823425
		c0.4984894-1.8340759,1.7204437-2.6905212,3.0290146-3.4710693c0.6697464-0.3994446,1.3431778-0.7975464,1.9809113-1.244873
		c1.1324463-0.794281,1.9802475-1.8315125,2.4643097-3.1394348c1.0048676-2.7151489,0.7311478-5.4637451,0.2914658-8.1794434
		c-2.0728607,0.4515076-4.0528259,0.9276123-6.0515518,1.3040161c-1.6058273,0.3023682-2.7350845,1.1522827-3.4486465,2.5965881
		c-1.8665466,3.7779846-1.3987732,7.4449768,0.5709763,11.0158386
		C90.8508377,338.9518433,91.2984543,339.2107544,91.8003769,339.6823425z M103.7423401,343.7856445
		c-0.2710419,2.0667725-1.345459,3.5408325-2.5214844,4.9609375c-0.9113159,1.1004639-1.3329773,2.3401794-1.0238953,3.7688904
		c0.9260712,4.2807007,5.6014633,8.0567017,10.0038757,8.0863037c0.0198822-0.0534668,0.0621033-0.1098938,0.0556335-0.1599731
		c-0.0229645-0.1776123-0.0429535-0.3595581-0.0988846-0.5283203c-0.5417786-1.6342163-0.4242401-3.2199402,0.1352768-4.8483276
		c0.283577-0.8253479,0.4514008-1.8038635,0.2998276-2.6462097
		C109.8723602,348.4161072,107.5677643,345.5984497,103.7423401,343.7856445z M150.2672272,355.0044861
		c-0.5210266-0.3369751-0.8921967-0.6536865-1.3202515-0.8385315c-1.0079193-0.4352417-1.7681122-1.1284485-2.3006592-2.0663757
		c-1.6708374-2.9425964-4.3537445-3.5278931-7.4155273-3.1764221c-2.484726,0.2852478-4.4374237,1.8097839-6.6481323,2.86026
		c0.4620514,0.4803162,0.8885956,0.860199,1.2386475,1.3008423c0.7406921,0.932312,1.6001587,1.816925,2.1243896,2.8645935
		c0.9888458,1.9762573,2.5501862,2.870575,4.6597595,2.9749451c0.7765656,0.0384521,1.5664215,0.0716248,2.3342133-0.0228882
		C145.8070068,358.5477905,148.2618561,357.3812256,150.2672272,355.0044861z M138.3683929,359.6752319
		c-1.9084015-0.6944275-3.0972595-1.7167664-3.6803894-3.3670654c-0.5736847-1.6236267-1.792099-2.5931396-3.3526001-3.1766052
		c-2.9865112-1.1165771-5.9412384-0.9606323-8.8716583,0.2379761c-0.2968903,0.12146-0.6420135,0.1249084-0.813179,0.1557922
		c0.7706299,1.9034424,1.5260391,3.943573,2.4178085,5.9222107c0.8767624,1.945343,2.4540176,3.1203308,4.5750732,3.3864136
		c2.6663513,0.3344421,5.2162628-0.1764221,7.5675964-1.4792175
		C136.9261475,360.9585571,137.5210419,360.3451843,138.3683929,359.6752319z M111.7529144,351.0756531
		c-0.0779343,1.1827698-0.1324539,2.2267151-0.2199173,3.2678833c-0.0677719,0.8067017-0.1595993,1.6123352-0.2707062,2.4142456
		c-0.2882309,2.0802917,0.4976425,3.6666565,2.1305542,4.9324646c3.0774155,2.3855286,8.3068924,3.0021362,11.3160553,1.269165
		c-0.1260452-0.2015381-0.214859-0.4417419-0.3825378-0.5964355c-1.5030212-1.3863831-1.9798889-3.2044983-2.3194351-5.1315002
		c-0.1282959-0.7282104-0.5052185-1.5112305-1.0008621-2.0592651
		C118.5560379,352.4634705,115.3612366,351.3621521,111.7529144,351.0756531z"/>
	<path style="fill:#FFFFFF;" d="M144.9533997,271.0420837c0.4070129,0.3884583,0.7195435,0.7488098,1.0918274,1.0300293
		c0.9990387,0.7546997,1.6607819,1.7152405,1.9601746,2.934082c0.4930573,2.0072021,1.7750854,3.1914368,3.7707825,3.6949158
		c0.8022919,0.2023926,1.7445679,0.2737732,2.2179108,1.4282837c-0.6063995,0.059967-1.1169281,0.0993042-1.6242828,0.1636658
		c-0.535675,0.0679321-1.1311188,0.033783-1.591217,0.2633057c-1.8256531,0.9108887-3.5796356,2.0131531-5.6539154,2.2519531
		c-1.1561432,0.1331177-2.3374634,0.1417847-3.5014801,0.0848999c-1.1113281-0.0543213-1.9300385,0.2970276-2.6966248,1.1187134
		c-1.8814697,2.0168457-4.221344,3.260498-6.966095,3.6263733c-1.4535522,0.1937561-2.5769348,0.7620544-3.4576416,1.98703
		c-1.5390625,2.1407471-3.4378433,3.8196716-6.1199417,4.4718323c-1.5909653,0.3868103-2.772644,1.3237305-3.284874,3.0151062
		c-0.3032532,1.0012512-0.7770386,1.1191101-1.8889847,0.7105713c0.4470596-0.8652039,0.8913193-1.7250366,1.3770905-2.6651306
		c-0.5583038-0.1210327-0.9915085-0.2125549-1.4236298-0.3090515c-1.2207947-0.2724304-2.3108368-0.7345886-3.2093964-1.6850281
		c-1.3073654-1.382843-2.9419098-1.5863953-4.7363739-1.0909424c-0.9290543,0.2565308-1.8779678,0.6248779-3.0745544,0.2013855
		c0.3653488-0.3234558,0.5958023-0.5719299,0.867836-0.7604065c1.0542297-0.7304382,1.9193573-1.5122375,2.5859451-2.7313232
		c1.5735626-2.8777771,3.9922714-4.9482422,7.2316971-5.8475342c1.3376617-0.3713379,2.3585358-1.0217285,3.1426697-2.2070007
		c1.7731171-2.6802673,4.3205338-4.2817688,7.4420547-4.9892883c0.5266113-0.1193542,1.051857-0.244751,1.5771255-0.3699646
		c1.0139923-0.2416077,1.8060303-0.6969299,2.6458893-1.4425354c2.8488007-2.5291748,6.2080994-3.9972229,10.1431732-3.5125732
		c1.0121613,0.1246338,1.8840027-0.0260925,2.7615662-0.5087585c2.0049133-1.1025696,4.049881-2.1530762,6.3751068-2.3471375
		c0.9728851-0.0812378,1.971756,0.0489502,2.9472809,0.1734619c0.2333679,0.0297852,0.4206085,0.4211426,0.6290741,0.6462097
		c-0.2303162,0.1756897-0.4502716,0.4857788-0.6927032,0.5045166c-1.2564087,0.0971069-2.5223846,0.0740967-3.7777863,0.1792603
		C148.1862183,269.2147522,146.5974274,270.0379333,144.9533997,271.0420837z M138.455719,282.5265503
		c-0.2851715-0.222168-0.4746857-0.4223633-0.7059326-0.5413818c-1.4033051-0.7222595-2.4150696-1.7841797-3.2185059-3.1622925
		c-0.8404694-1.4416199-2.2901459-2.1469116-3.9398193-2.172699c-4.1445847-0.0647583-7.3063126,1.8117065-9.6801529,5.1302795
		c-0.0974121,0.1361694-0.1450272,0.3080444-0.2710953,0.5843506c2.070694,0.1222534,3.4332275,1.293335,4.6739731,2.6974487
		c0.8719635,0.9867554,2.0148239,1.5235596,3.3211288,1.6251831c3.2727661,0.2545776,6.1736145-0.6788635,8.6480713-2.8511047
		C137.7047119,283.4664612,138.0390015,282.9974365,138.455719,282.5265503z M110.1652451,290.3152161
		c0.2613297,0.0947571,0.367897,0.1598511,0.4794388,0.1699524c1.7951965,0.1619873,3.2987442,0.8786011,4.6639557,2.0887146
		c1.3045197,1.15625,2.9682388,1.4219666,4.6696701,1.1151428c3.1657867-0.5707703,5.6431427-2.2692566,7.5793533-4.7978821
		c0.2087784-0.272644,0.3531189-0.5946045,0.6174927-1.0484619c-2.1537628-0.2228088-3.4485703-1.5259094-4.730751-2.9169922
		c-1.0705948-1.1616211-2.5391006-1.4846802-4.0593948-1.3130493
		C115.1029816,284.0960693,112.2375717,286.5651245,110.1652451,290.3152161z M132.0783386,275.662323
		c2.1544647,0.6797791,3.5471802,1.870697,4.4017792,3.7560425c0.2573853,0.5678101,0.9105988,1.0748596,1.5031128,1.3447571
		c0.9427795,0.4293518,1.9690704,0.7346497,2.9913025,0.9190979c3.1326294,0.5653076,5.8555603-0.877594,8.7602844-1.8661499
		c-0.2310944-0.3627319-0.3696442-0.7188416-0.6216888-0.9523315c-1.2669678-1.1737366-1.9949341-2.658905-2.6783905-4.2137451
		c-0.6954803-1.5822754-2.0443573-2.5231628-3.7179871-2.861084c-3.4865723-0.703949-6.5984802,0.21875-9.3536682,2.399353
		C132.9092712,274.5474548,132.5854645,275.0710449,132.0783386,275.662323z"/>
	<path style="fill:#FFFFFF;" d="M162.8418732,110.1627197c-0.0172577-0.3397522-0.046051-0.5728073-0.0383911-0.8046646
		c0.2172241-6.5803833,0.3796082-13.163353,0.684845-19.7396851c0.1376648-2.9659424,0.4362488-5.9378357,0.8878174-8.8722305
		c0.5166626-3.3575592,3.6630707-5.769104,7.1794586-5.7714691c3.5180359-0.0023651,6.6903381,2.3852234,7.1924286,5.7512207
		c0.5265961,3.5302124,0.8919067,7.0991516,1.0666199,10.6639557c0.2928314,5.974411,0.3787537,11.9589462,0.550705,17.9392548
		c0.0059662,0.2073669,0.0007477,0.415062,0.0007477,0.732338c-1.0171509,0-1.9951324,0.0328598-2.9662476-0.0341034
		c-0.1522522-0.0104904-0.3817902-0.4698105-0.3923798-0.7290802c-0.1458893-3.5746689-0.2969971-7.1498795-0.3718414-10.7265167
		c-0.0924377-4.4180527-0.0618286-8.8392029-0.198822-13.2554703c-0.0431976-1.3917999-0.3123627-2.8168716-0.7303467-4.1474228
		c-0.6460724-2.0565643-2.1395874-3.0125656-4.2157745-2.9961166c-2.0151825,0.0159531-3.4765472,0.9861755-4.0680695,3.0536346
		c-0.4247131,1.4844513-0.65979,3.061882-0.7138824,4.607132c-0.2429504,6.9397812-0.3878937,13.8829956-0.576889,20.8247223
		c-0.0245361,0.9010925-0.0768433,1.8031235-0.1686249,2.6993484c-0.020401,0.1992111-0.2418213,0.5155029-0.4054718,0.5393753
		C164.6773834,110.0253754,163.7860413,110.0785294,162.8418732,110.1627197z"/>
	<path style="fill:#FFFFFF;" d="M175.6887512,109.7925262c-2.0764771,0-4.0197601,0.0225906-5.9604797-0.0376053
		c-0.1790619-0.0055542-0.4849396-0.5357742-0.4903259-0.8268585c-0.0668793-3.6034393-0.1260834-7.20784-0.1130676-10.8117218
		c0.0166473-4.5960388,0.088913-9.1920242,0.1663971-13.7875366c0.0156097-0.9250793,0.0671844-1.8693695,0.2702179-2.7667542
		c0.297287-1.3139114,1.0926056-1.8069,2.5317688-1.779541c1.2520599,0.0237961,2.0992584,0.605545,2.3177032,1.8388977
		c0.2134247,1.2050018,0.2682037,2.4434509,0.3233948,3.6703415c0.3292389,7.3212585,0.6421356,14.6432648,0.9494934,21.9654846
		C175.7199707,108.1175003,175.6887512,108.9805984,175.6887512,109.7925262z"/>
</g>
</svg>
