<?xml version="1.0" standalone="no"?>
<!DOCTYPE svg PUBLIC "-//W3C//DTD SVG 20010904//EN"
 "http://www.w3.org/TR/2001/REC-SVG-20010904/DTD/svg10.dtd">
<svg version="1.0" xmlns="http://www.w3.org/2000/svg"
 width="700.000000pt" height="700.000000pt" viewBox="0 0 700.000000 700.000000"
 preserveAspectRatio="xMidYMid meet">
<metadata>
Created by potrace 1.14, written by Peter Selinger 2001-2017
</metadata>
<g transform="translate(0.000000,700.000000) scale(0.100000,-0.100000)"
fill="#000000" stroke="none">
<path d="M702 6989 c-172 -29 -320 -107 -452 -239 -135 -135 -210 -279 -239
-460 -15 -91 -15 -5489 0 -5580 29 -181 104 -325 239 -460 135 -135 279 -210
460 -239 91 -15 5489 -15 5580 0 181 29 325 104 460 239 135 135 210 279 239
460 15 91 15 5489 0 5580 -29 181 -104 325 -239 460 -135 135 -279 210 -460
239 -81 14 -5509 13 -5588 0z m2989 -293 c91 -32 194 -101 260 -175 57 -63
122 -190 138 -269 17 -80 13 -198 -9 -286 -22 -93 -18 -125 31 -230 29 -61 31
-73 24 -124 -4 -31 -7 -92 -6 -134 2 -70 -1 -85 -34 -158 -20 -45 -35 -83 -33
-86 3 -2 159 -11 349 -19 396 -17 426 -20 439 -46 11 -19 14 -298 4 -347 -4
-19 -14 -32 -28 -36 -11 -3 -158 -13 -326 -21 -168 -8 -384 -19 -480 -25 -382
-21 -545 -22 -864 -6 -418 21 -406 21 -406 -5 0 -12 18 -41 40 -65 25 -27 44
-60 51 -90 9 -36 25 -60 65 -98 29 -28 63 -72 74 -99 12 -26 33 -55 48 -64 45
-28 93 -76 112 -113 12 -24 37 -45 78 -68 33 -18 63 -29 65 -25 2 5 7 112 11
238 4 127 9 258 12 293 6 61 7 62 36 62 l30 0 -6 -97 c-10 -168 -15 -516 -6
-431 4 42 11 171 15 285 12 338 25 280 23 -106 -1 -317 0 -356 15 -365 9 -6
19 -7 23 -3 4 3 9 164 12 356 l5 349 69 7 c39 3 72 4 75 2 2 -3 12 -190 22
-416 9 -225 20 -413 24 -418 5 -4 6 26 3 67 -3 41 -8 183 -11 315 -3 132 -8
288 -12 348 l-6 107 36 0 35 0 6 -77 c3 -43 10 -224 16 -403 14 -439 15 -447
35 -470 10 -11 43 -28 74 -37 43 -13 68 -30 107 -70 28 -29 71 -61 95 -71 57
-25 103 -64 129 -111 12 -20 41 -49 66 -65 56 -35 78 -64 104 -132 11 -30 39
-80 61 -110 39 -51 42 -60 50 -148 5 -51 16 -113 24 -136 19 -54 19 -113 0
-176 -8 -27 -15 -75 -15 -107 0 -64 -22 -117 -65 -157 -15 -14 -44 -55 -66
-92 -45 -77 -72 -99 -150 -122 -31 -9 -62 -23 -69 -31 -28 -34 -101 -67 -167
-76 -37 -5 -76 -12 -85 -15 -14 -4 -18 0 -18 19 0 24 1 25 63 20 52 -5 71 -2
108 17 75 38 74 36 4 106 l-64 64 -61 0 c-77 0 -80 23 -4 28 37 2 58 11 87 34
21 16 55 34 75 40 38 10 92 53 92 73 0 7 18 33 40 58 35 39 40 51 40 94 0 27
6 73 14 102 12 47 12 59 -1 89 -8 19 -17 67 -20 106 -4 56 -11 76 -29 96 -13
14 -36 54 -53 90 -22 50 -40 73 -76 98 -25 18 -60 55 -77 82 -17 28 -37 50
-45 50 -25 0 -75 31 -126 79 l-50 46 7 -195 c42 -1190 53 -1368 92 -1500 74
-255 304 -324 662 -199 165 58 289 137 408 261 64 66 134 155 134 169 0 5 -51
9 -112 9 -114 0 -215 12 -264 31 -26 9 -21 14 128 114 122 82 175 126 254 207
162 169 280 361 355 580 19 54 37 98 40 98 19 0 113 -238 148 -375 46 -184 53
-424 16 -615 -30 -158 -128 -466 -150 -471 -5 -2 -42 61 -82 139 l-72 143 -42
-73 c-66 -114 -213 -327 -289 -419 -157 -189 -378 -343 -786 -545 -177 -87
-302 -156 -352 -193 -101 -76 -201 -183 -273 -293 l-57 -89 -24 33 c-14 18
-51 70 -83 116 -74 104 -160 191 -251 251 -39 26 -197 112 -352 190 -562 284
-728 429 -1010 885 l-86 139 -12 -29 c-83 -191 -129 -273 -145 -257 -18 18
-90 226 -118 340 -73 301 -67 591 19 854 31 94 108 269 119 269 4 0 26 -53 50
-117 62 -167 128 -291 222 -417 119 -158 210 -243 382 -356 l148 -98 -33 -11
c-68 -21 -167 -32 -266 -29 -56 2 -102 0 -102 -3 0 -20 93 -144 149 -199 110
-110 236 -185 399 -240 353 -117 555 -65 643 168 46 123 50 181 94 1287 33
813 35 727 -20 759 -24 15 -63 49 -87 77 -24 28 -63 62 -88 74 -49 25 -87 62
-116 112 -10 18 -42 49 -71 69 -54 37 -86 78 -98 126 -4 15 -23 39 -42 54 -49
37 -90 98 -98 144 -4 24 -21 55 -44 82 -50 57 -58 73 -66 139 -4 31 -11 62
-15 69 -6 10 -51 16 -162 22 -84 5 -163 11 -175 13 -30 7 -34 38 -31 235 l3
165 125 10 c69 6 131 14 138 18 8 6 12 39 12 105 0 82 4 105 25 150 14 30 25
69 25 87 0 51 26 113 69 164 22 26 49 72 61 102 21 58 52 93 108 125 19 10 42
36 53 56 18 35 75 88 96 88 22 0 53 42 53 73 0 59 29 167 62 235 68 140 250
281 411 318 91 20 226 12 318 -20z m-533 -4488 c-3 -8 -30 -15 -64 -19 -59 -6
-104 -22 -104 -38 0 -5 7 -15 16 -22 9 -8 25 -33 35 -57 15 -34 28 -47 64 -63
49 -22 51 -34 8 -42 -16 -3 -53 -15 -83 -26 -30 -11 -75 -20 -99 -21 -32 0
-51 -7 -75 -27 -38 -32 -103 -62 -133 -63 -14 0 -41 -19 -69 -49 -30 -32 -67
-58 -101 -72 -37 -15 -59 -31 -69 -50 -14 -29 -34 -39 -34 -18 0 6 5 19 10 30
9 16 7 19 -8 19 -10 0 -39 14 -65 31 -43 28 -51 30 -104 23 l-57 -7 34 35 c19
19 52 55 72 81 26 31 53 51 85 63 30 11 67 38 99 70 41 42 63 56 116 72 37 12
88 37 115 56 52 37 129 62 165 53 11 -3 37 1 57 10 76 33 107 42 149 43 31 0
42 -4 40 -12z m-1185 -900 c-23 -24 -47 -56 -52 -71 -10 -26 -16 -127 -7 -127
2 0 20 7 39 15 20 8 52 15 72 15 27 0 45 9 79 40 24 22 46 40 50 40 12 0 6
-28 -9 -40 -12 -10 -15 -30 -14 -74 1 -34 -2 -82 -6 -109 -6 -42 -4 -52 19
-85 14 -21 30 -60 35 -87 5 -29 17 -54 27 -60 37 -22 77 -60 99 -96 20 -30 32
-38 67 -44 24 -4 64 -18 90 -31 44 -22 49 -23 89 -9 23 8 70 15 105 15 53 0
71 5 112 31 33 20 67 32 105 36 41 4 62 12 78 29 12 13 32 24 43 24 18 0 17
-3 -9 -30 -16 -16 -24 -30 -19 -30 6 0 35 -23 64 -50 62 -58 85 -66 139 -52
50 12 75 -1 30 -17 -17 -6 -43 -11 -55 -11 -13 0 -41 -15 -61 -34 -51 -45 -70
-53 -139 -65 -37 -6 -80 -22 -113 -42 -48 -30 -60 -33 -144 -35 -51 -1 -105
-7 -120 -13 -47 -18 -105 -13 -175 18 -37 16 -96 37 -131 47 -51 14 -72 26
-105 61 -23 24 -71 73 -108 110 -75 77 -83 91 -99 163 -6 29 -25 74 -42 102
-34 54 -33 47 -24 275 4 110 4 112 45 180 23 38 42 76 42 83 0 10 7 8 22 -8
l22 -22 -41 -42z"/>
<path d="M3364 6470 c-85 -34 -192 -142 -210 -213 -5 -23 -3 -27 14 -27 12 0
36 9 54 19 49 28 91 34 155 20 32 -7 97 -13 144 -13 81 -1 88 -3 140 -38 30
-21 70 -41 89 -44 19 -4 54 -17 78 -31 l42 -24 0 23 c0 40 -27 127 -53 171
-34 57 -107 124 -165 150 -69 31 -218 34 -288 7z"/>
<path d="M3261 6237 c-33 -11 -55 -37 -32 -37 6 0 24 -27 41 -60 24 -47 39
-64 72 -81 44 -22 130 -31 147 -14 11 11 -8 115 -27 151 -24 45 -128 66 -201
41z"/>
<path d="M3484 6218 c10 -26 25 -84 31 -120 8 -50 59 -103 113 -117 23 -7 46
-10 51 -7 4 3 13 37 20 76 12 64 11 73 -6 102 -26 45 -94 78 -160 78 -40 0
-53 -3 -49 -12z"/>
<path d="M3070 6194 c-57 -22 -115 -84 -79 -84 6 0 31 -20 55 -45 25 -25 56
-48 70 -51 38 -10 132 2 159 20 l24 16 -34 52 c-62 96 -57 91 -121 94 -32 2
-66 1 -74 -2z"/>
<path d="M3730 6121 c0 -18 -5 -52 -11 -77 -13 -52 -2 -102 31 -144 l20 -25
30 34 c32 37 60 108 60 152 0 33 -49 75 -98 85 -31 6 -32 5 -32 -25z"/>
<path d="M2859 6070 c-41 -22 -92 -77 -86 -94 2 -6 12 -13 21 -14 10 -2 39
-17 64 -33 25 -16 60 -29 76 -29 41 1 109 32 143 66 26 26 26 27 7 35 -10 4
-37 25 -59 48 -35 36 -44 41 -85 41 -25 -1 -61 -10 -81 -20z"/>
<path d="M3280 6011 c-19 -11 -54 -23 -77 -27 l-42 -6 16 -32 c27 -52 53 -83
99 -116 l44 -31 0 -125 0 -125 -22 7 c-104 32 -241 142 -305 245 -20 33 -39
59 -42 59 -3 -1 -18 -18 -32 -39 -15 -21 -46 -51 -70 -67 -34 -23 -48 -41 -66
-89 -12 -33 -36 -72 -51 -86 -23 -21 -30 -37 -35 -84 -3 -32 -17 -79 -30 -105
-22 -42 -23 -52 -14 -108 l10 -62 51 0 c28 0 170 7 316 15 146 8 378 15 517
14 138 0 256 2 261 5 5 3 15 32 21 65 6 32 22 72 34 87 20 26 22 40 22 140 l1
112 -43 -30 c-47 -32 -152 -83 -158 -76 -2 2 -5 57 -6 122 l-1 119 38 33 39
32 -30 43 c-25 36 -38 45 -72 51 -23 3 -61 19 -85 34 -35 23 -55 28 -113 29
-38 1 -86 4 -105 8 -26 5 -44 2 -70 -12z m280 -83 c30 -15 51 -35 62 -58 19
-39 35 -220 41 -457 l4 -143 -32 0 -32 0 -6 143 c-4 78 -7 192 -7 252 0 168
-22 217 -95 217 -74 0 -94 -54 -96 -255 -1 -67 -4 -174 -8 -237 l-6 -115 -29
-3 -29 -4 7 224 c11 349 23 404 99 439 54 24 73 24 127 -3z m-15 -95 c11 -26
35 -546 25 -556 -4 -5 -31 -7 -61 -5 l-54 3 -3 261 c-1 156 2 272 8 288 8 21
16 26 44 26 23 0 36 -6 41 -17z"/>
<path d="M2720 5929 c-35 -14 -78 -57 -101 -101 -25 -50 -24 -58 9 -58 16 0
50 -7 76 -16 61 -21 108 -9 159 41 66 64 65 69 -8 109 -68 37 -92 42 -135 25z"/>
<path d="M4053 5745 c-5 -9 -31 -30 -58 -48 -27 -18 -58 -47 -68 -65 -21 -36
-29 -135 -12 -150 6 -6 37 -3 80 7 87 20 115 53 115 138 0 80 -36 155 -57 118z"/>
<path d="M2595 5739 c-60 -35 -105 -104 -105 -162 l0 -34 83 4 c56 3 90 10
106 22 38 27 80 83 86 116 6 29 5 30 -47 44 -82 21 -101 22 -123 10z"/>
<path d="M2536 5520 c-66 -13 -106 -80 -106 -181 0 -55 6 -62 34 -44 11 7 39
17 61 21 85 15 133 67 142 158 l6 56 -49 -1 c-27 -1 -67 -5 -88 -9z"/>
<path d="M4060 5484 c-19 -7 -52 -15 -72 -19 -65 -10 -118 -69 -133 -146 l-7
-36 48 -7 c73 -10 104 -7 134 11 51 30 93 138 73 189 -7 18 -11 19 -43 8z"/>
<path d="M2590 5309 c-14 -4 -44 -13 -68 -19 -46 -12 -82 -40 -82 -65 0 -13
15 -15 93 -13 l92 3 3 44 c4 51 -4 61 -38 50z"/>
<path d="M2180 4856 c0 -24 1 -24 143 -30 78 -4 306 -17 507 -29 441 -26 858
-28 1250 -4 151 9 349 19 440 22 254 9 277 12 283 41 4 23 2 24 -58 24 -34 0
-239 -7 -456 -17 -501 -20 -1080 -20 -1559 1 -206 9 -414 16 -462 16 -86 0
-88 -1 -88 -24z"/>
<path d="M2535 4729 c-4 -11 -4 -35 -1 -53 7 -35 64 -129 75 -124 19 8 111
121 117 143 12 49 2 55 -95 55 -82 0 -90 -2 -96 -21z"/>
<path d="M2735 4651 c-3 -11 -21 -33 -39 -48 -47 -39 -59 -67 -52 -118 7 -46
57 -129 87 -145 15 -9 22 -4 39 27 11 21 30 51 43 66 42 53 23 149 -41 210
-29 28 -30 28 -37 8z"/>
<path d="M2841 4438 c-11 -18 -30 -46 -41 -63 -25 -37 -25 -78 -1 -130 17 -38
81 -105 101 -105 11 0 80 140 80 161 0 44 -82 169 -110 169 -5 0 -17 -15 -29
-32z"/>
<path d="M2996 4264 c-4 -15 -18 -41 -32 -59 -28 -37 -30 -71 -9 -123 20 -47
50 -79 97 -103 47 -24 48 -24 48 7 0 14 10 48 21 75 20 45 21 54 9 92 -16 54
-42 91 -84 116 -42 26 -42 26 -50 -5z"/>
<path d="M3166 4122 c-20 -37 -46 -147 -41 -172 9 -41 94 -127 136 -138 l34
-8 6 42 c4 23 12 51 18 62 16 30 14 58 -9 101 -30 59 -130 137 -144 113z"/>
<path d="M3350 3946 c0 -13 -7 -43 -15 -67 -12 -32 -13 -50 -5 -73 22 -64 81
-117 156 -140 19 -6 22 -2 27 31 3 21 9 59 12 85 9 60 -21 117 -84 158 -56 38
-91 40 -91 6z"/>
<path d="M3560 3817 c0 -13 -7 -47 -15 -75 -18 -60 -8 -97 41 -146 30 -30 94
-66 116 -66 13 0 38 101 38 151 0 22 -39 82 -70 107 -20 17 -60 38 -87 46 -19
6 -23 4 -23 -17z"/>
<path d="M3762 3642 c-17 -83 -15 -115 11 -152 28 -41 84 -87 117 -95 25 -6
26 -3 44 68 21 82 18 110 -16 152 -25 32 -105 85 -128 85 -11 0 -19 -16 -28
-58z"/>
<path d="M3390 3622 c-1 -324 -32 -1963 -40 -2082 -17 -249 -42 -365 -86 -399
-24 -19 -41 -21 -149 -21 -209 0 -374 41 -565 141 -178 93 -391 271 -525 439
-130 164 -266 403 -345 612 -22 56 -40 97 -40 89 0 -33 76 -237 134 -356 110
-225 227 -386 404 -556 193 -187 428 -322 796 -459 219 -81 288 -119 387 -217
l66 -64 6 1058 c4 582 7 1236 7 1454 l0 396 -25 11 -25 12 0 -58z"/>
<path d="M3972 3508 c-7 -29 -15 -63 -18 -75 -13 -49 6 -94 62 -150 30 -30 60
-53 66 -51 7 3 15 16 19 31 4 15 17 38 28 53 45 57 12 150 -74 210 -60 42 -70
40 -83 -18z"/>
<path d="M4176 3354 c-4 -14 -18 -43 -33 -65 -22 -34 -25 -46 -20 -93 5 -54
21 -91 55 -135 l19 -24 57 57 c52 52 56 60 56 102 0 54 -20 96 -68 147 -42 44
-57 46 -66 11z"/>
<path d="M4329 3138 c-7 -13 -34 -43 -61 -69 -49 -46 -53 -56 -48 -137 1 -18
7 -51 13 -74 l12 -40 25 20 c14 10 41 24 61 31 54 18 72 43 77 110 3 48 -1 69
-23 120 -15 33 -31 61 -36 61 -5 0 -14 -10 -20 -22z"/>
<path d="M4381 2863 c-19 -12 -41 -23 -50 -23 -45 0 -93 -69 -105 -150 -9 -67
-2 -73 83 -64 62 6 75 10 95 35 29 34 48 116 40 169 -9 54 -22 62 -63 33z"/>
<path d="M4385 2610 c-11 -5 -42 -9 -68 -9 -27 -1 -65 -10 -88 -21 -64 -33
-129 -140 -84 -140 9 0 37 -11 63 -25 40 -21 53 -23 81 -15 65 18 112 84 125
173 7 48 5 52 -29 37z"/>
<path d="M4043 2408 c-17 -6 -47 -23 -65 -38 l-33 -28 57 -57 57 -58 55 5 c63
5 124 42 156 93 26 42 26 45 -11 45 -16 0 -47 11 -67 25 -39 27 -91 31 -149
13z"/>
<path d="M5311 2289 c-125 -328 -292 -576 -535 -797 -99 -90 -209 -165 -341
-230 -129 -64 -227 -97 -394 -133 -75 -16 -147 -37 -160 -47 -30 -22 -49 -71
-32 -82 33 -19 233 41 433 130 427 191 733 489 949 925 65 131 134 315 126
338 -1 5 -22 -42 -46 -104z"/>
<path d="M3241 2015 c-15 -185 -32 -270 -70 -351 -89 -190 -228 -235 -506
-166 -66 17 -121 29 -123 28 -5 -6 161 -67 225 -82 102 -25 217 -23 276 6 100
47 164 155 201 334 20 96 30 265 19 331 -8 45 -10 36 -22 -100z"/>
<path d="M3738 2115 c-11 -51 10 -315 31 -397 39 -150 107 -242 203 -274 81
-27 216 -15 353 30 61 20 117 41 125 47 12 9 11 10 -5 4 -177 -58 -338 -74
-432 -42 -75 26 -137 85 -177 170 -45 95 -64 183 -80 352 -7 90 -14 129 -18
110z"/>
<path d="M2805 2121 c-71 -32 -72 -42 -17 -99 60 -62 83 -74 138 -74 47 0 144
28 144 42 0 4 -7 13 -16 21 -8 7 -26 34 -39 59 -13 26 -35 51 -50 58 -38 17
-114 14 -160 -7z"/>
<path d="M2605 2021 c-23 -10 -54 -33 -69 -52 -27 -32 -28 -34 -9 -37 11 -2
41 -21 67 -42 41 -34 55 -40 95 -40 51 0 116 26 144 58 18 20 17 21 -38 76
-52 52 -59 56 -103 56 -26 0 -65 -9 -87 -19z"/>
<path d="M2425 1891 c-40 -18 -89 -61 -106 -92 -7 -13 0 -20 36 -33 24 -10 49
-23 55 -31 36 -43 143 -19 206 46 25 27 35 43 26 46 -7 3 -36 22 -64 44 -59
44 -91 48 -153 20z"/>
<path d="M2013 1116 c-29 -7 -60 -19 -69 -27 -45 -37 -57 -144 -24 -216 10
-24 21 -43 24 -43 2 0 19 15 38 33 19 17 51 44 71 60 42 31 60 82 55 155 -3
55 -12 58 -95 38z"/>
<path d="M2043 885 c-29 -19 -57 -44 -63 -54 -15 -30 -12 -91 9 -136 17 -37
76 -105 92 -105 3 0 9 14 13 31 3 17 20 47 37 67 30 34 31 38 25 98 -7 71 -30
134 -49 134 -7 0 -36 -16 -64 -35z"/>
<path d="M2180 727 c0 -8 -13 -32 -29 -54 -40 -55 -44 -76 -26 -120 21 -50 61
-91 110 -114 62 -29 70 -26 72 29 0 26 2 68 4 93 3 57 -34 127 -85 158 -39 25
-46 26 -46 8z"/>
<path d="M2850 641 c-22 -7 -89 -39 -98 -46 -2 -2 15 -31 39 -64 43 -61 75
-81 129 -81 38 0 90 19 127 47 l33 24 -54 54 c-70 72 -109 86 -176 66z"/>
<path d="M2336 563 c-13 -80 -7 -123 19 -149 36 -36 86 -54 149 -54 80 0 90 6
67 39 -10 14 -24 46 -31 70 -6 24 -22 54 -36 68 -30 30 -100 62 -135 63 -23 0
-27 -5 -33 -37z"/>
<path d="M2570 568 c-19 -5 -36 -11 -38 -13 -2 -2 12 -36 31 -77 33 -72 51
-89 106 -102 33 -7 110 11 150 35 l32 19 -33 34 c-18 18 -43 47 -56 64 -35 47
-112 63 -192 40z"/>
</g>
</svg>
